<?xml version="1.0" encoding="UTF-8"?>
<svg id="Calque_1" data-name="Calque 1" xmlns="http://www.w3.org/2000/svg" xmlns:xlink="http://www.w3.org/1999/xlink" viewBox="0 0 1758.25 1259.43">
  <defs>
    <style>
      .cls-1 {
        fill: none;
      }

      .cls-2 {
        fill-rule: evenodd;
      }

      .cls-2, .cls-3 {
        fill: #fff;
      }

      .cls-4 {
        fill: #ada6db;
      }

      .cls-5 {
        clip-path: url(#clippath);
      }
    </style>
    <clipPath id="clippath">
      <rect class="cls-1" x="397.23" y="284.54" width="963.78" height="690.35"/>
    </clipPath>
  </defs>
  <rect id="Fond-violet" class="cls-4" width="1758.25" height="1259.43"/>
  <g id="logo-fond-violet">
    <g id="logo">
      <g class="cls-5">
        <g>
          <rect class="cls-4" x="397.23" y="284.54" width="963.78" height="690.35"/>
          <path class="cls-3" d="M595.82,679.09c0,22.52-18.26,40.78-40.78,40.78s-40.78-18.26-40.78-40.78,18.26-40.78,40.78-40.78,40.78,18.26,40.78,40.78Z"/>
          <path class="cls-3" d="M453.49,942.78l42.29,6.42c7.54,1.61,21.74-40.56,28.43-64.39,21.74-74.84,11.74-89.38,80.17-103.98,50.36-10.75,67.38-7.13,85.09-11.21,5.22-1.2,7.83-6.79,6.17-11.89l-9.28-28.5c-1.75-5.38-7.51-8.06-12.8-6.07-8.31,3.12-22.33,7.5-58.05,14.72-43.12,8.72-87.39,4.9-127.13-24.87-25.1-18.8-48.11-65.32-59.68-43.25l-11.43,22.87c-.48.97-.84,2.01-.89,3.09-.45,9.35,7.89,18.31,56.67,65.47,21.9,23.54,20.65,42.13,9.36,79.72-7.01,23.32-23.52,61.03-36.82,83.79-4.03,6.9.01,16.88,7.91,18.08Z"/>
          <path class="cls-2" d="M582.48,786.32c-30.35,9.26-37.54,21.15-45.07,48.53,1.42-20.4,9.92-40.05,30.23-55.46,5.85-4.44,13.73-.15,14.84,6.92ZM583.72,801.78c3.51,34.73,14.45,87.79,46.31,122.58,4.59,5.01,3.8,13.06-2.78,14.73-17.2,4.37-38.08,1.06-49.73-1.69-2.1-.5-3.94-1.69-5.24-3.41-10.15-13.37-22.76-34.88-29.77-58.6,2.1-7.8,3.89-14.88,5.47-21.18h0c1.04-4.13,1.99-7.91,2.9-11.34,3.19-12.12,5.69-19.55,8.89-24.96,3.69-6.23,9.07-11.2,23.94-16.13Z"/>
          <path class="cls-2" d="M1166.58,642.47c3.78-2.73,6.51-6.45,8.13-10.26,2.78-6.52,3.03-14.88-1.23-22.18-1.55-2.66-3.16-5.57-4.8-8.65,2.63-15.11,7.72-27.52,15.28-37.23,11.87-14.9,28.97-22.21,51.32-21.94,20.42.28,36.28,8,47.59,23.18,11.59,15.18,17.38,34.9,17.38,59.19,0,18.49-3.17,38.77-9.52,60.84-6.06,22.07-14.49,43.6-25.25,64.57,3.86-.55,7.86-.83,12.01-.83,17.93,0,32.28,5.38,43.04,16.14,10.76,10.76,16.14,24.97,16.14,42.63,0,14.35-5.1,27.04-15.32,38.08-9.93,10.76-23.31,18.9-40.15,24.42,6.62,4.14,12.42,9.11,17.39,14.9l12.41,14.49c6.62,8,12.69,13.8,18.21,17.38,5.52,3.31,12.83,5.93,21.94,7.86,1.93,5.24,2.21,11.04.82,17.38-1.38,6.07-3.86,10.62-7.45,13.66-9.1,0-17.66-2.07-25.66-6.21-7.73-4.41-16.28-11.31-25.66-20.69l-17.8-18.21c-7.73-8-14.49-13.93-20.28-17.8-5.52-4.14-12.01-6.9-19.46-8.28-7.17-1.38-17.38-2.07-30.63-2.07-.28,4.41-.41,8.83-.41,13.24v54.22c-2.76.83-5.79,1.52-9.11,2.07-3.31.55-6.48.83-9.52.83-6.35,0-12.83-.97-19.45-2.9v-33.94c-11.31,14.62-22.9,24.97-34.77,31.04-6.1,3.05-12.7,5.3-19.79,6.74-2.06,1.3-4.66,1.95-7.82,1.95-1.99,0-3.94-.07-5.83-.2-2.2.13-4.43.2-6.71.2-2.47,0-4.6-.78-6.42-2.35-18.12-4.94-30.42-17.68-36.92-38.22-3.86,6.35-8,11.73-12.42,16.14-7.45,7.45-16.14,13.38-26.08,17.8-3.31,1.51-6.71,2.77-10.22,3.76-2.29,1.91-5.21,2.86-8.78,2.86-2.16,0-4.29-.07-6.37-.22-2,.15-4.04.22-6.1.22-2.23,0-4.14-.64-5.73-1.93-11.19-2.53-21-7.54-29.41-15.04-12.69-11.59-21.8-27.59-27.32-48.01-12.97,20.42-29.94,36.42-50.91,48.01-16.3,8.91-34.48,14.31-54.54,16.2-1.55.51-3.29.77-5.21.77-1.72,0-3.42-.04-5.11-.11-2.09.07-4.19.11-6.32.11-1.87,0-3.58-.39-5.12-1.16-8.22-1.19-16.08-3.28-23.59-6.29-12.14-5.24-21.94-12.42-29.39-21.52-10.21,5.24-21.11,10.35-32.7,15.31-10.27,4.26-19.17,7.6-26.71,10.04-1.4.45-2.95.14-4-.9-3.52-3.5-6.11-7.51-7.78-12.04-2.21-5.24-3.03-11.31-2.48-18.21,6.9-2.21,15.45-5.38,25.66-9.52,10.21-4.41,19.87-8.97,28.97-13.66-9.11-17.66-13.66-38.08-13.66-61.26,0-17.11,3.17-32.15,9.52-45.11,6.35-13.24,15.18-23.59,26.49-31.04,11.31-7.73,24.14-11.59,38.49-11.59,12.14,0,22.9,2.9,32.28,8.69,9.38,5.52,16.69,13.24,21.94,23.18,5.24,9.93,7.86,21.38,7.86,34.35-1.1,33.11-24.56,64.43-70.36,93.95,8.04,6.82,18.87,10.63,32.5,11.43,19.23-.99,36.32-6.59,51.27-16.81,16.83-11.31,30.08-26.9,39.73-46.77,9.66-19.87,14.49-42.63,14.49-68.29v-39.73h-30.63c-1.93-4.42-2.9-9.93-2.9-16.56s.97-12.14,2.9-16.56h30.63v-73.26c5.24-1.93,11.59-2.9,19.04-2.9,6.62,0,12.97.97,19.04,2.9v73.26h61.67c2.21,4.41,3.31,9.93,3.31,16.56s-1.1,12.14-3.31,16.56h-61.67v85.67c0,27.59,4.14,48.84,12.42,63.74,7.23,12.36,16.93,19.5,29.09,21.41,4.16-.77,8.52-2.39,13.08-4.86,6.62-3.59,12.83-9.11,18.63-16.55,6.9-9.38,11.87-20.14,14.9-32.28,3.31-12.14,5.38-24.42,6.21-36.84v-74.5c2.48-.83,5.38-1.52,8.69-2.07,3.31-.55,6.76-.83,10.35-.83,6.35,0,12.55.97,18.62,2.9v119.2c0,14.62,2.21,26.07,6.62,34.35,3.7,6.32,9.3,10.14,16.79,11.47,9.77-1.6,19.18-6.8,28.21-15.61,11.31-11.04,23.87-29.39,37.66-55.05v-206.84ZM1203.42,787.22v-159.76c0-33.94,10.07-50.91,30.21-50.91,9.66,0,16.97,4.14,21.93,12.42,5.25,8,7.86,19.73,7.86,35.18s-2.48,31.46-7.45,49.67c-4.69,17.93-11.59,36.56-20.69,55.87-8.83,19.31-19.45,38.49-31.87,57.53ZM1232.39,801.3c11.04-12.97,23.87-19.45,38.49-19.45,8.83,0,15.86,2.62,21.11,7.86,5.52,4.97,8.27,11.59,8.27,19.87s-3.3,15.73-9.93,22.35c-6.35,6.62-15.18,11.87-26.49,15.73-11.31,3.86-24.14,5.79-38.49,5.79-6.07,0-11.45-.28-16.14-.83,4.69-21.25,12.42-38.35,23.18-51.32ZM748.57,882.42c-6.35-12.97-9.52-29.25-9.52-48.84,0-14.07,3.45-25.94,10.35-35.59,7.17-9.66,16.14-14.49,26.9-14.49,8.55,0,15.18,2.9,19.87,8.69,4.97,5.52,7.45,13.24,7.45,23.18-.55,11.87-5.11,22.9-13.66,33.11-8.55,9.93-22.35,21.25-41.39,33.94ZM721.66,683.75c3.03,12.69,10.07,22.49,21.11,29.39,10.76-6.62,20.83-14.07,30.21-22.35,9.66-8.55,18.21-16.97,25.66-25.25,7.73-8.28,13.52-15.45,17.38-21.52-2.48-5.52-6.21-10.21-11.17-14.07-4.69-4.14-10.21-7.04-16.56-8.69-4.14,5.79-9.79,12.42-16.97,19.87-7.17,7.45-15.18,14.9-24.01,22.35-8.55,7.45-17.11,14.21-25.66,20.28ZM1059.09,695.34c-7.73,0-14.35-2.76-19.87-8.28-5.52-5.52-8.28-12.14-8.28-19.87,0-8.28,2.62-15.04,7.86-20.28,5.52-5.24,12.28-7.86,20.28-7.86s15.04,2.62,20.28,7.86c5.24,5.24,7.86,12,7.86,20.28s-2.76,14.76-8.28,20.28c-5.24,5.24-11.87,7.86-19.87,7.86Z"/>
          <path class="cls-2" d="M936.97,471l21.97-27.58c.48-.6.74-1.35.74-2.12v-4.42c-.91-.32-1.74-.62-2.52-.92-4.75-1.78-9.92.62-11.49,5.45l-8.33,25.58c-.43,1.33-.54,2.7-.36,4ZM927.54,482.84c-4.17-5.79-5.22-13.5-3.09-20.04l8.33-25.58c3.77-11.58,15.71-17.59,26.9-14.66v-9.98c0-1.88-1.52-3.4-3.4-3.4h-150.47c-1.88,0-3.4,1.52-3.4,3.4v27.22c0,1.88,1.52,3.4,3.4,3.4h106.34v.1l-111.38,140.22c-.48.6-.74,1.35-.74,2.11v28.72c0,1.88,1.52,3.4,3.4,3.4h153.25c1.88,0,3.4-1.52,3.4-3.4v-27.22c0-1.88-1.52-3.4-3.4-3.4h-109.12v-.49l79.98-100.4ZM466.7,412.12c12.45-5.68,26.61-8.5,42.44-8.5,19.02,0,34.85,3.75,47.38,11.37,12.7,7.3,22.09,16.94,28.08,28.92,6.01,11.51,8.87,23.9,8.58,37.15-.04,1.68-1.31,3.05-2.94,3.26l-30.06,3.94c-2.05.27-3.81-1.32-3.86-3.33-.23-10.06-2.3-18.25-6.1-24.67h0s0-.02,0-.02c-4.08-7.14-9.67-12.47-16.78-16.02l-.03-.02-.03-.02c-6.87-3.81-14.92-5.75-24.22-5.75-6.94,0-13.9,1.29-20.88,3.87h-.02s-.02.01-.02.01c-6.6,2.28-12.74,6.36-18.41,12.29h-.01s-.01.03-.01.03c-5.61,5.61-10.13,13.19-13.51,22.82h0s0,.01,0,.01c-3.36,9.3-5.07,21.01-5.07,35.21,0,18.39,2.76,33.22,8.17,44.57,5.71,11.15,13.04,19.22,21.97,24.32,9.28,5.15,19.46,7.73,30.58,7.73,11.96,0,21.54-2.47,28.87-7.27,7.41-5.12,12.76-11.74,16.07-19.9h0s0-.02,0-.02c3.38-7.97,5.07-16.39,5.06-25.27,0-1.97,1.67-3.6,3.7-3.43l30.78,2.5c1.73.14,3.1,1.57,3.11,3.34.1,11.78-1.66,22.73-5.29,32.84-3.53,10.3-9.09,19.39-16.68,27.26h-.01s-.01.02-.01.02c-7.62,7.62-17.12,13.44-28.45,17.49-11.09,4.06-23.88,6.07-38.35,6.07-16.08,0-30.36-2.55-42.79-7.68h-.01s-.01-.01-.01-.01c-12.41-5.4-22.95-12.96-31.6-22.69h0s0-.02,0-.02c-8.38-9.73-14.71-21.19-19.01-34.38v-.02s0-.02,0-.02c-4.03-13.17-6.04-27.79-6.04-43.83s2.01-30.27,6.04-43.44h0s0-.02,0-.02c4.3-13.43,10.49-25.16,18.59-35.14h0c8.38-10.28,18.67-18.13,30.83-23.54ZM653.68,416.16c15.11-8.36,31.96-12.54,50.52-12.54s35.8,4.17,50.92,12.54c15.15,8.39,27.04,20.83,35.66,37.26,8.92,16.22,13.32,36.53,13.32,60.84s-4.27,44.62-12.92,60.83c-8.63,16.18-20.53,28.23-35.7,36.09-14.85,7.83-31.56,11.72-50.09,11.72s-36.31-4.03-51.68-12.12h0s0,0,0,0c-15.16-8.12-27.18-20.29-36.07-36.46v-.02s-.02-.01-.02-.01c-8.64-16.48-12.92-36.78-12.92-60.82s4.41-44.63,13.33-60.85c8.89-16.16,20.77-28.33,35.66-36.45ZM703.8,438.03c-12.15,0-22.54,3.1-31.23,9.23h-.01s-.01.02-.01.02c-8.7,5.88-15.53,14.48-20.46,25.9-4.66,11.14-7.02,24.42-7.02,39.89,0,23.87,5.38,42.55,15.94,56.2,10.78,13.6,25.51,20.42,44.39,20.42,12.18,0,22.58-2.84,31.27-8.47,8.71-5.89,15.39-14.23,20.05-25.09,4.66-10.86,7.02-24.27,7.02-40.28s-2.49-30.07-7.41-41.47h0s0-.01,0-.01c-4.93-11.67-11.9-20.54-20.87-26.69l-.02-.02-.02-.02c-8.68-6.38-19.18-9.61-31.6-9.61Z"/>
          <path class="cls-3" d="M1026.94,396.4c0,20.22,16.39,36.6,36.6,36.6s36.6-16.39,36.6-36.6-16.39-36.6-36.6-36.6-36.6,16.39-36.6,36.6Z"/>
          <path class="cls-2" d="M1190.55,338.24c-.8.49-1.84.25-2.34-.55l-1.63-2.63c-.5-.8-.25-1.84.55-2.34l27.97-17.35c2.8-1.74,5.8-2.23,8.99-1.49,3.19.75,5.66,2.52,7.39,5.32l1.06,1.71c.5.8.25,1.84-.55,2.34l-2.63,1.63c-.8.49-1.84.25-2.34-.55l-1.06-1.71c-.76-1.23-1.89-2.01-3.37-2.36-1.49-.35-2.85-.14-4.07.62l-27.97,17.35ZM1177.52,317.23c-.8.49-1.84.25-2.34-.55l-1.63-2.63c-.49-.8-.25-1.84.55-2.34l1.71-1.06c1.23-.76,2-1.85,2.34-3.27.33-1.42.12-2.74-.64-3.97l-1.22-1.97c-.5-.8-.25-1.84.55-2.34l2.63-1.63c.8-.49,1.84-.25,2.34.55l1.22,1.97c1.74,2.8,2.24,5.76,1.51,8.88-.73,3.12-2.5,5.55-5.3,7.29l-1.71,1.06ZM1184.03,327.73c-.8.49-1.84.25-2.34-.55l-1.63-2.63c-.49-.8-.25-1.84.55-2.34l17.47-10.84c1.23-.76,2.01-1.89,2.36-3.37.35-1.49.14-2.85-.62-4.07l-4.32-6.96c-.49-.8-.25-1.84.55-2.34l2.63-1.63c.8-.49,1.84-.25,2.34.55l4.32,6.96c1.74,2.8,2.23,5.8,1.49,8.99-.75,3.19-2.52,5.66-5.32,7.39l-17.47,10.84ZM1197.07,348.74c-.8.49-1.84.25-2.34-.55l-1.63-2.63c-.49-.8-.25-1.84.55-2.34l6.96-4.32c2.8-1.74,5.8-2.23,8.99-1.49,3.19.75,5.66,2.52,7.39,5.32l4.32,6.96c.5.8.25,1.84-.55,2.34l-2.63,1.63c-.8.49-1.84.25-2.34-.55l-4.32-6.96c-.76-1.23-1.89-2.01-3.37-2.36-1.49-.35-2.85-.14-4.07.62l-6.96,4.32ZM1161.34,386.62l-7.54-11.6c-.77-1.18-.43-2.76.75-3.52l3.03-1.97c.39-.25.84-.39,1.3-.41l34.81-1.26c1.98-.07,3.12-2.27,2.04-3.93l-40.01-61.54c-1.08-1.66-3.56-1.51-4.43.27l-15.27,31.31c-.2.41-.51.77-.9,1.02l-22.44,14.59c-3.17,2.06-5.14,4.95-5.93,8.67-.79,3.72-.15,7.16,1.9,10.33l7.49,11.51c2.06,3.17,4.95,5.14,8.67,5.93s7.16.15,10.33-1.9l3.62-2.35c1.18-.77,2.76-.43,3.52.75l9.23,14.19c-1.73,1.97-3.5,4.05-5.31,6.17-7.13,8.37-14.86,17.45-22.83,23.41-35.67,26.71-75.4,30.14-114.11,22.32-32.06-6.48-44.65-10.41-52.1-13.21-4.75-1.78-9.92.62-11.49,5.45l-8.33,25.58c-1.49,4.57.85,9.59,5.54,10.67,6.11,1.41,12.14,1.79,19.81,2.28,12.27.78,28.75,1.84,56.57,7.77,7.56,1.61,14.05,3.22,19.66,4.94-.05.32-.08.64-.1.97-1.62,29.29-9.65,86.98-42.58,122.92-4.12,4.49-3.41,11.72,2.49,13.22,15.44,3.92,34.18.95,44.63-1.52,1.89-.44,3.53-1.51,4.7-3.06,14.17-18.67,33.68-55,31.31-88.98,1.19,4.33,2.39,9.1,3.72,14.36h0c2.19,8.71,4.73,18.77,8.13,30.48,6,21.39,18.75,59.24,25.52,57.79l37.96-5.76c7.09-1.08,10.72-10.04,7.1-16.23-11.94-20.43-26.76-54.27-33.05-75.21-10.14-33.73-11.26-50.42,8.4-71.55,43.78-42.33,51.27-50.37,50.86-58.76-.05-.97-.36-1.9-.8-2.77l-10.26-20.53c-3.9-7.44-9.24-6.19-15.6-.84Z"/>
        </g>
      </g>
    </g>
  </g>
</svg>